<svg xmlns="http://www.w3.org/2000/svg" width="22" height="22" viewBox="0 0 22 22">
    <g fill="none" fill-rule="evenodd" stroke-linecap="round" stroke-linejoin="round">
        <g fill="#E0E0E2" stroke="#E0E0E2" stroke-width="1.3">
            <g>
                <g>
                    <path d="M9.362.405l2.124 4.267c.104.214.309.364.547.4l4.754.687c.193.027.367.128.484.281.117.154.166.347.138.537-.024.156-.1.3-.216.409l-3.442 3.335c-.174.164-.252.404-.208.638l.83 4.7c.06.388-.206.751-.597.818-.162.025-.327-.001-.473-.074l-4.24-2.215c-.211-.115-.468-.115-.68 0L4.12 16.42c-.358.18-.797.046-.987-.303-.075-.14-.1-.301-.075-.458l.83-4.7c.04-.234-.038-.471-.208-.638L.213 6.986c-.284-.284-.284-.74 0-1.022.115-.106.26-.177.414-.205l4.754-.686c.237-.04.44-.188.547-.401L8.052.405c.084-.173.235-.306.42-.367.184-.062.385-.048.559.04.143.071.259.186.331.327z" transform="translate(-600 -271) translate(379 271) translate(221) translate(2.292 2.75)"/>
                </g>
            </g>
        </g>
    </g>
</svg>
